HIERARCHY
ROOT Hips
{
	OFFSET 0.000000 0.000000 0.000000
	CHANNELS 6 Xposition Yposition Zposition Zrotation Yrotation Xrotation 
	JOINT LHipJoint
	{
		OFFSET 0.000000 0.000000 0.000000
		CHANNELS 3 Zrotation Yrotation Xrotation
		JOINT LeftUpLeg
		{
			OFFSET 1.363060 -1.794630 0.839290
			CHANNELS 3 Zrotation Yrotation Xrotation
			JOINT LeftLeg
			{
				OFFSET 2.448110 -6.726130 0.000000
				CHANNELS 3 Zrotation Yrotation Xrotation
				JOINT LeftFoot
				{
					OFFSET 2.562200 -7.039590 0.000000
					CHANNELS 3 Zrotation Yrotation Xrotation
					JOINT LeftToeBase
					{
						OFFSET 0.157640 -0.433110 2.322550
						CHANNELS 3 Zrotation Yrotation Xrotation
						End Site
						{
							OFFSET 0.000000 0.000000 0.000000
						}
					}
				}
			}
		}
	}
	JOINT RHipJoint
	{
		OFFSET 0.000000 0.000000 0.000000
		CHANNELS 3 Zrotation Yrotation Xrotation
		JOINT RightUpLeg
		{
			OFFSET -1.305520 -1.794630 0.839290
			CHANNELS 3 Zrotation Yrotation Xrotation
			JOINT RightLeg
			{
				OFFSET -2.542530 -6.985550 0.000000
				CHANNELS 3 Zrotation Yrotation Xrotation
				JOINT RightFoot
				{
					OFFSET -2.568260 -7.056230 0.000000
					CHANNELS 3 Zrotation Yrotation Xrotation
					JOINT RightToeBase
					{
						OFFSET -0.164730 -0.452590 2.363150
						CHANNELS 3 Zrotation Yrotation Xrotation
						End Site
						{
							OFFSET 0.000000 0.000000 0.000000
						}
					}
				}
			}
		}
	}
}
MOTION
Frames: 11
Frame Time: 0.008333
-8.281474 18.011302 -0.973210 167.289146 78.674922 -168.613015 -9.440380 1.713000 3.731373 -15.556972 -6.575307 -31.373989 -2.095460 -0.280995 18.176179 2.227458 11.874419 -5.064445 1.053101 0.000000 -26.354600 9.857299 -3.653376 0.393337 8.967596 -4.395477 -6.469410 1.045919 -0.976844 14.902433 -0.708211 -4.816189 17.689547 177.629000 0.000000 -91.353500
-8.022205 18.052132 -1.010526 170.389159 78.612838 -165.540118 -9.463379 1.633215 3.884762 -15.777062 -6.542435 -31.669317 -2.257717 -0.545967 14.983942 2.028586 11.016954 -3.922154 1.265300 -0.000000 -27.598600 9.740600 -3.772483 0.275197 9.361365 -4.733346 -6.038849 1.049492 -1.038651 15.282464 -0.740400 -5.003835 18.567859 177.503200 0.000000 -90.790200
-7.765378 18.078438 -1.047628 173.302731 78.495215 -162.694501 -9.495215 1.562370 4.007586 -16.080147 -6.409532 -32.064043 -2.427603 -0.778788 12.243418 1.816217 10.052742 -2.968701 1.386700 0.000000 -29.260299 9.624942 -3.868415 0.134740 9.703741 -5.159535 -5.673306 1.045025 -1.101300 15.954458 -0.794859 -5.373282 18.856949 177.329400 -0.000000 -90.748200
-7.510789 18.090926 -1.083974 175.895655 78.326370 -160.217707 -9.527786 1.505857 4.093384 -16.514211 -6.168933 -32.538089 -2.609878 -0.977131 9.967801 1.594174 8.978570 -2.229897 1.417400 0.000000 -31.356900 9.517827 -3.941113 -0.028587 9.958046 -5.678486 -5.362540 1.029714 -1.167798 16.914794 -0.864855 -5.864214 18.608236 177.138600 0.000000 -90.822800
-7.258238 18.090146 -1.119144 178.069069 78.119240 -158.215471 -9.552540 1.467638 4.141461 -17.107215 -5.839536 -33.051444 -2.805130 -1.142238 8.134061 1.369071 7.820948 -1.705052 1.370500 -0.000001 -33.810900 9.429052 -3.989885 -0.219728 10.088412 -6.319832 -5.098285 0.999407 -1.238613 18.117789 -0.954087 -6.480480 17.947135 176.932900 0.000000 -91.605601
-7.007419 18.076703 -1.153145 179.865771 77.893385 -156.640367 -9.568652 1.447134 4.151048 -17.844144 -5.435510 -33.579748 -3.008570 -1.274766 6.714482 1.146772 6.610982 -1.375165 1.264900 -0.000000 -36.448400 9.358758 -4.017407 -0.429198 10.091067 -7.025309 -4.875398 0.957206 -1.317604 19.568104 -1.049486 -7.102587 16.929714 176.775100 0.000000 -91.967100
-6.757944 18.050921 -1.185842 -178.674078 77.671823 -155.450790 -9.574766 1.442791 4.127473 -18.691755 -4.995254 -34.081588 -3.211275 -1.377122 5.657363 0.936439 5.411151 -1.201204 1.126600 0.000001 -39.027400 9.310329 -4.024944 -0.655718 9.958310 -7.787703 -4.683626 0.901992 -1.403672 21.198808 -1.155618 -7.752766 15.700985 176.652800 0.000000 -92.632600
-6.509272 18.013099 -1.217217 -177.437193 77.479168 -154.523359 -9.575650 1.449356 4.076489 -19.586841 -4.552957 -34.533295 -3.400669 -1.450289 4.916421 0.746601 4.285770 -1.135285 0.980100 -0.000001 -41.301300 9.279404 -4.016736 -0.887154 9.707205 -8.535333 -4.511751 0.837715 -1.498006 22.974960 -1.263185 -8.364021 14.345245 176.591000 0.000000 -93.027800
-6.260869 17.963248 -1.247361 -176.286344 77.339453 -153.708138 -9.578816 1.459902 4.007690 -20.450806 -4.144737 -34.924940 -3.562490 -1.494905 4.451395 0.585901 3.302804 -1.130622 0.845400 -0.000000 -43.074600 9.259878 -3.997712 -1.113373 9.366933 -9.217965 -4.360820 0.766426 -1.599811 24.845643 -1.371314 -8.941552 12.966802 176.575700 -0.000001 -93.434500
-6.012119 17.901383 -1.276264 -175.085973 77.275092 -152.851893 -9.592540 1.466422 3.932667 -21.202654 -3.809742 -35.261895 -3.682972 -1.511448 4.231994 0.462469 2.527071 -1.150062 0.737500 -0.000000 -44.218300 9.243719 -3.973806 -1.320791 8.973640 -9.765920 -4.238690 0.692467 -1.709770 26.791126 -1.470635 -9.433726 11.606984 176.616999 -0.000000 -93.445700
-5.762434 17.827404 -1.303644 -173.772933 77.304056 -151.875184 -9.619119 1.462219 3.867118 -21.778470 -3.605864 -35.542990 -3.750668 -1.502703 4.226852 0.386016 2.031670 -1.173014 0.668200 -0.000000 -44.650200 9.229218 -3.947561 -1.503540 8.542778 -10.156724 -4.155143 0.616319 -1.825561 28.760525 -1.561870 -9.860537 10.335171 176.691200 0.000001 -93.565100
